<?xml version="1.0" encoding="UTF-8"?>
<svg id="Layer_1" data-name="Layer 1" xmlns="http://www.w3.org/2000/svg" version="1.1" viewBox="0 0 1368.9 216.6">
  <defs>
    <style>
      .cls-1 {
        fill: #464646;
        stroke-width: 0px;
      }
    </style>
  </defs>
  <text/>
  <g>
    <path class="cls-1" d="M87,96.9c-27.3.1-54.6.1-81.9,0-3.7,0-5.2.7-5.1,4.9.2,36.6.2,73.1,0,109.7,0,3.8.8,5,4.9,5,27.3-.2,54.6-.2,81.9,0,4.2,0,4.8-1.5,4.8-5.1-.2-18.1,0-36.3,0-54.4,0,0,.1,0,.2,0,0-18.5-.1-37,0-55.4,0-3.8-1.1-4.7-4.8-4.7ZM42.7,131.3c-8.2-5.1-12.5-11.7-15.6-20.1,7.7,2.5,13.9,10.2,15.6,20.1ZM3.3,140.6c10.1-4.3,16.3-12.1,20.3-22,.7-1.8,1.9-1.4,2.3,0,1.8,5.4,6.5,8.7,9.9,14-11.6,1.5-21.4,5.8-30.2,12.2-.9.7-2.4,2-3.3.2-.7-1.4-1.1-3.4.9-4.3ZM3.8,163.9c2.8-1,5.5-2.3,8.3-3.4,14.7-5.4,27.7-13.6,39.3-23.9,2.7-2.4,4.6-5.5,7.1-8.7,3.9,6.5,6.5,13.3,9.1,20.1.8,2.1-.7,2.2-2.1,2.1-20.2-.8-37.5,8.2-55.1,16.3-1.7.8-3.3,1.5-5.1,2.1-1.1.4-2.6,1.4-3.3-.6-.5-1.7-.5-3.2,1.6-4ZM14.4,189c-2.9.5-5.8,1.2-8.8,1.8-1.5.3-2.9.8-3.3-1.6-.3-2.4.8-2.6,2.7-3,14.5-3.5,29.1-6.4,43-12.2,4-1.7,6.6-4.9,9.8-7.4,2-1.5,3.5-2,3.9,1.4.7,5.7,3.6,11,3.8,18-18-8-34.4.2-51.2,3.1ZM72.4,186.4c-4.2-6.1-6-12.8-6.7-19.8-.1-1-.6-2.5.8-3,1.6-.6,2.4.6,3.1,1.8,3.6,6.6,4.1,13.6,2.8,20.9ZM77.3,151c-1.4.4-2.6-.7-3.2-1.9-4.5-7.8-8.6-15.7-10.2-24.7-.2-1.4-.2-2.8,1.1-3.6,1.4-.9,2.5.4,3.5,1.2.7.5,1.3,1.1,1.7,1.8,4.2,7.4,7,15.4,8.5,22.6.2,2.5.3,4.2-1.2,4.6Z"/>
    <path class="cls-1" d="M89.3,0c-6.5.9-13,1.6-19.3,3.6C40.7,13,18.7,30.7,7,59.7c-3,7.4-5.6,15-6.2,23.2-.3,3.8.5,5.2,4.7,5.1,13.5-.3,27-.1,40.4-.1,13.8,0,27.6-.1,41.4,0,3.6,0,4.4-1.1,4.4-4.5-.2-17.5,0-35,0-52.4,0-9.2,0-18.3,0-27.5,0-1.7.7-4-2.5-3.6ZM70.5,65.6c-3.2-.5-4.8.3-5.7,4-1.4,5.5-6.7,6.2-11.6,6.9-9.8,1.4-19-1.9-28.3-4.2-1.5-.4-1.6-1.6-1.7-2.7-.1-1.5,1.1-1.8,2.3-2.1,3.9-1.1,7.2-3.4,10.5-5.6,1.5-1,3.1-2.3,2.6-4.4-.6-2.3-2.5-2.8-4.6-2.9-6.1-.5-7.2-2.4-4.7-8,.5-1.1,1-2.1,1.5-3.1,3.5-6.3,5.5-6.6,11.1-2.1,2.4,1.9,5,6.1,7.5,4.6,3.7-2.2,2-7.2,2.2-12.4.2-1.8-2-5.9.8-7.6,2.4-1.5,4.7,2.4,6.9,3.9,7,4.8,12.9,10.4,12.4,20-.2,4,.3,7.9,1.8,11.7,1.1,2.8.5,4.5-3,4Z"/>
    <path class="cls-1" d="M187.6,88c2.9,0,4.3-.4,3.9-3.8-1.4-12.4-5.1-24-11.2-35-9.2-16.6-22-29.6-38.8-38.4C130.2,4.8,118.3.8,105.3.5c-3.6,0-5-.4-5,3.8.1,26.6,0,53.3,0,79.9,0,3.2,1,3.9,4,3.9,13.8-.1,27.6,0,41.4,0,14,0,28,0,41.9,0ZM153.2,79.6c-3-.6-6.3-.1-9.5-.1,0,0,0,0,0,0-4.2,0-8.4-.4-12.5.1-4.5.6-6.7-1.7-8.5-5.1-1.4-2.6-2.9-5.2-4.4-7.8-3-4.9-2.6-10.6,1.3-14.6,3.1-3.2,9.6-3.7,14-1.4,1.4.8,2.6,3.6,4.4,1.8,1.7-1.7,1.1-4.5.7-6.7-.6-2.8-2.6-.8-4-.6-2,.3-2.8-.5-2.9-2.4,0-2.2,0-4.3,0-6.5-.2-2.4.7-3.4,3.1-2.8,2.4.5,4,0,3.5-2.9-.4-2.5.8-3.2,3.1-3,2.2.2,4.3,0,6.5,0,.5,0,1-.1,1.5,0,2.8,1,1,6.8,7.2,5.5,2.8-.6,1.2,6.2,1.8,9.6.4,2.6-2.2,1.5-3.7,1.5-1.2,0-2.8-1.2-3.1,1-.3,1.9-.7,4.2.4,5.8,1,1.3,2.5,0,3.5-.7,1.9-1.2,3.9-1.7,6-2.2,4.2-1.2,6.6.7,8.3,4.3,3.1,6.6-.3,12.2-2.6,18-2.5,6.2-6,10.8-14,9.2Z"/>
    <path class="cls-1" d="M191.6,145.7c0-3-.7-4.1-3.9-4-11.8.2-23.6.2-35.4,0-3.2,0-3.9,1-3.9,4,.2,11.1,0,22.3,0,33.4,0,11.1.1,22.3,0,33.4,0,3,.7,4,3.8,3.9,11.8-.2,23.6-.2,35.4,0,3.1,0,3.9-.8,3.9-3.9-.1-22.3-.1-44.6,0-66.9Z"/>
    <path class="cls-1" d="M142.3,145.6c0-3-1-4-4.1-3.9-11.3.2-22.6.2-33.9,0-3.6,0-4.4,1.2-4.4,4.6.2,11,0,21.9,0,32.9,0,0-.1,0-.2,0,0,11.1,0,22.3,0,33.4,0,2.5,0,4,3.3,3.9,12-.2,23.9-.2,35.9,0,2.8,0,3.3-1.2,3.3-3.6,0-22.4,0-44.9,0-67.3Z"/>
    <path class="cls-1" d="M188,96.6c-6,.1-12,0-18,0-6,0-12,.1-18,0-2.9,0-3.7.9-3.6,3.7.1,10.8.1,21.6,0,32.4,0,2.7.5,3.9,3.5,3.8,12.1-.2,24.3-.2,36.4-.2,2.3,0,3.2-.7,3.2-3.1-.1-11.1-.1-22.3,0-33.4,0-2.8-1.2-3.3-3.6-3.2Z"/>
    <path class="cls-1" d="M139,96.7c-11.7,0-23.3.1-35,0-2.7,0-3.9.6-3.8,3.6.1,10.8,0,21.6-.2,32.5,0,3.3,1.3,3.8,4.2,3.7,5.7-.2,11.3,0,17,0,6,0,12,0,18,0,2.3,0,3.2-.6,3.2-3.1,0-11.1,0-22.3.3-33.4,0-2.9-1.2-3.2-3.6-3.2Z"/>
    <path class="cls-1" d="M165.2,52.3c-3.2-2.6-6.3-.5-9.1,1.4-1.6,1.1-3.2,3-5.2,1.7-1.9-1.2-2.5-3.4-2.3-5.7,0-1.5,0-3,0-4.5-.1-3.1,0-5.8,4.4-4.4.9.3,2.2.3,2.4-1,.2-1.3.3-2.8-.2-3.9-.5-1.1-1.8-.3-2.6,0-3.7,1.8-4.3-.2-4-3.3.2-2.9-1.8-2.6-3.7-2.7-1.9,0-3.8-.2-3.5,2.7.3,3-1,4.4-4.1,3.9-3-.5-2.7,1.6-2.6,3.4.2,2.7,2.2,1.6,3.3,1.2,4.5-1.8,4.7.6,4.3,4-.1,1.2-.3,2.3-.4,3.5-.9,9-2,9.6-9.4,5.2-3.3-2-6.9-2.2-9.8.3-2.8,2.4-3.4,5.9-2.1,9.5,4,11.4,6.6,13.2,18.5,13,1.7,0,3.3,0,5,0q17.4.1,23-14c1.6-4,1.5-7.7-1.9-10.4Z"/>
    <path class="cls-1" d="M261.4,125.8c-.5,0-.9.2-1.4.6-1,.9-2.1,1.8-3.1,2.4-1,.7-2.2,1.2-3.4,1.7s-2.5.8-4,1c-1.4.2-3,.3-4.8.3-2.9,0-5.6-.5-8.2-1.6-2.5-1.1-4.7-2.6-6.6-4.6-1.9-2-3.3-4.5-4.4-7.4-1.1-2.9-1.6-6.2-1.6-10s.5-7,1.5-9.9c1-2.9,2.5-5.4,4.3-7.4,1.9-2,4.1-3.6,6.6-4.7,2.6-1.1,5.4-1.6,8.5-1.6s4.7.3,6.5.8c1.8.5,3.2,1.1,4.4,1.8,1.2.7,2.1,1.3,2.8,1.8.7.5,1.3.8,1.8.8s.8,0,1.1-.3c.3-.2.5-.4.6-.7l2.7-3.7c-2.5-2.3-5.3-4.2-8.6-5.6-3.3-1.4-7-2-11.3-2s-8.3.7-11.9,2.2c-3.6,1.5-6.7,3.6-9.2,6.3-2.6,2.7-4.6,5.9-6,9.7-1.4,3.8-2.1,7.9-2.1,12.4s.7,8.6,2,12.4c1.4,3.8,3.3,7,5.8,9.7,2.5,2.7,5.5,4.8,9,6.3,3.5,1.5,7.4,2.2,11.7,2.2s9.2-.8,12.7-2.4c3.5-1.6,6.5-3.8,8.9-6.6l-3.2-3.5c-.3-.4-.7-.5-1.2-.5Z"/>
    <polygon class="cls-1" points="315.5 105.1 283.2 105.1 283.2 78.4 275.1 78.4 275.1 138.2 283.2 138.2 283.2 111 315.5 111 315.5 138.2 323.6 138.2 323.6 78.4 315.5 78.4 315.5 105.1"/>
    <path class="cls-1" d="M355.4,78.4l-23.9,59.8h6.3c.7,0,1.3-.2,1.8-.6.5-.4.8-.8,1-1.3l5.6-14.4h26.8l5.6,14.4c.2.6.6,1,1,1.4s1,.5,1.8.5h6.3l-23.9-59.8h-8.2ZM348.3,116l9.4-24.3c.6-1.5,1.2-3.4,1.8-5.6.3,1.1.6,2.1.9,3.1.3,1,.6,1.8.9,2.5l9.4,24.3h-22.3Z"/>
    <path class="cls-1" d="M429.9,83.4c-1.8-1.6-4.2-2.9-7-3.7-2.8-.9-6.1-1.3-9.9-1.3h-17.7v59.8h8.1v-22.4h9.6c3.6,0,6.8-.5,9.6-1.4,2.8-.9,5.1-2.2,7-3.9,1.9-1.7,3.3-3.7,4.3-6,1-2.3,1.5-4.9,1.5-7.6s-.5-5.4-1.4-7.6c-.9-2.3-2.3-4.2-4.1-5.8ZM426.4,102c-.6,1.5-1.5,2.8-2.7,3.9-1.2,1.1-2.7,2-4.5,2.6-1.8.6-3.8.9-6.1.9h-9.6v-24.6h9.6c4.8,0,8.4,1.1,10.7,3.2,2.4,2.1,3.5,5.1,3.5,8.9s-.3,3.5-.9,5.1Z"/>
    <polygon class="cls-1" points="453.6 111.2 476.9 111.2 476.9 104.8 453.6 104.8 453.6 85 482.4 85 482.4 78.4 445.5 78.4 445.5 138.2 482.4 138.2 482.5 131.6 453.6 131.6 453.6 111.2"/>
    <polygon class="cls-1" points="501.8 78.4 493.8 78.4 493.8 138.2 527.7 138.2 527.7 131.4 501.8 131.4 501.8 78.4"/>
    <path class="cls-1" d="M602.6,86.3c-2.6-2.7-5.7-4.8-9.3-6.3-3.6-1.5-7.6-2.3-12-2.3s-8.4.8-12,2.3c-3.6,1.5-6.7,3.6-9.3,6.3-2.6,2.7-4.6,5.9-6,9.7-1.4,3.7-2.1,7.9-2.1,12.3s.7,8.6,2.1,12.3,3.4,7,6,9.7c2.6,2.7,5.7,4.8,9.3,6.3,3.6,1.5,7.6,2.2,12,2.2s8.4-.7,12-2.2c3.6-1.5,6.7-3.6,9.3-6.3,2.6-2.7,4.6-5.9,6-9.7,1.4-3.7,2.1-7.9,2.1-12.3s-.7-8.6-2.1-12.3c-1.4-3.7-3.4-7-6-9.7ZM601,118.2c-1,2.9-2.4,5.4-4.3,7.4-1.8,2-4.1,3.6-6.7,4.6s-5.5,1.6-8.8,1.6-6.1-.5-8.7-1.6c-2.6-1.1-4.8-2.6-6.7-4.6-1.9-2-3.3-4.5-4.3-7.4-1-2.9-1.5-6.2-1.5-9.9s.5-7,1.5-9.9c1-2.9,2.4-5.4,4.3-7.4,1.9-2,4.1-3.6,6.7-4.7,2.6-1.1,5.5-1.6,8.7-1.6s6.2.5,8.8,1.6c2.6,1.1,4.8,2.6,6.7,4.7s3.3,4.5,4.3,7.4c1,2.9,1.5,6.2,1.5,9.9s-.5,7-1.5,9.9Z"/>
    <polygon class="cls-1" points="622.3 138.2 630.4 138.2 630.4 112.5 655 112.5 655 105.9 630.4 105.9 630.4 85 659.2 85 659.2 78.4 622.3 78.4 622.3 138.2"/>
    <path class="cls-1" d="M731,125.8c-.5,0-.9.2-1.4.6-1,.9-2.1,1.8-3.1,2.4-1,.7-2.2,1.2-3.4,1.7s-2.5.8-4,1c-1.4.2-3,.3-4.8.3-2.9,0-5.6-.5-8.2-1.6-2.5-1.1-4.7-2.6-6.6-4.6-1.9-2-3.3-4.5-4.4-7.4-1.1-2.9-1.6-6.2-1.6-10s.5-7,1.5-9.9c1-2.9,2.5-5.4,4.3-7.4,1.9-2,4.1-3.6,6.6-4.7,2.6-1.1,5.4-1.6,8.5-1.6s4.7.3,6.5.8c1.8.5,3.2,1.1,4.4,1.8,1.2.7,2.1,1.3,2.8,1.8.7.5,1.3.8,1.8.8s.8,0,1.1-.3c.3-.2.5-.4.6-.7l2.7-3.7c-2.5-2.3-5.3-4.2-8.6-5.6-3.3-1.4-7-2-11.3-2s-8.3.7-11.9,2.2c-3.6,1.5-6.7,3.6-9.2,6.3-2.6,2.7-4.6,5.9-6,9.7-1.4,3.8-2.1,7.9-2.1,12.4s.7,8.6,2,12.4c1.4,3.8,3.3,7,5.8,9.7,2.5,2.7,5.5,4.8,9,6.3,3.5,1.5,7.4,2.2,11.7,2.2s9.2-.8,12.7-2.4c3.5-1.6,6.5-3.8,8.9-6.6l-3.2-3.5c-.3-.4-.7-.5-1.2-.5Z"/>
    <polygon class="cls-1" points="785.2 105.1 752.9 105.1 752.9 78.4 744.8 78.4 744.8 138.2 752.9 138.2 752.9 111 785.2 111 785.2 138.2 793.3 138.2 793.3 78.4 785.2 78.4 785.2 105.1"/>
    <path class="cls-1" d="M832.6,111.9c2.3-.5,4.4-1.3,6.2-2.3,1.8-1,3.4-2.3,4.6-3.7,1.3-1.5,2.2-3.1,2.9-4.9.7-1.8,1-3.8,1-5.9s-.4-4.8-1.3-6.9c-.9-2-2.2-3.8-4-5.2-1.8-1.4-4.1-2.6-6.8-3.3-2.8-.8-6-1.1-9.8-1.1h-16.9v59.8h8.1v-25h6.1c1.1,0,2,.1,2.5.4s1,.8,1.5,1.4l15.5,21.4c.7,1.1,1.8,1.7,3.3,1.7h7.2l-17.5-23.8c-.8-1.1-1.6-2-2.7-2.5ZM825.1,107.3h-8.5v-22.6h8.9c4.7,0,8.2.9,10.5,2.7,2.3,1.8,3.5,4.5,3.5,8.1s-.3,3.4-.9,4.8c-.6,1.4-1.5,2.7-2.7,3.7-1.2,1-2.7,1.9-4.5,2.4-1.8.6-3.9.9-6.2.9Z"/>
    <rect class="cls-1" x="860.8" y="78.4" width="8.1" height="59.8"/>
    <path class="cls-1" d="M913.6,109.5c-1.4-1.2-2.9-2.1-4.6-2.9-1.7-.8-3.5-1.5-5.3-2.1-1.8-.6-3.6-1.2-5.3-1.8-1.7-.6-3.2-1.2-4.6-2-1.4-.8-2.4-1.7-3.3-2.8-.8-1.1-1.2-2.5-1.2-4.2s.2-2.5.7-3.7c.5-1.1,1.2-2.1,2.1-2.9.9-.8,2.1-1.5,3.5-2,1.4-.5,3-.7,4.8-.7s3.6.2,4.9.7c1.3.5,2.5,1,3.5,1.6,1,.6,1.8,1.1,2.4,1.6.6.5,1.2.7,1.7.7s.8-.1,1.1-.3c.3-.2.6-.5.8-.9l2-3.8c-2.1-2-4.5-3.5-7.2-4.6-2.7-1.1-5.8-1.6-9.1-1.6s-5.6.5-7.9,1.4c-2.3.9-4.2,2.1-5.8,3.7-1.6,1.5-2.8,3.3-3.6,5.3s-1.2,4-1.2,6.1.4,4.9,1.2,6.7c.8,1.8,1.9,3.3,3.2,4.5,1.3,1.2,2.9,2.2,4.6,2.9,1.7.8,3.5,1.4,5.3,2,1.8.6,3.5,1.1,5.3,1.7,1.7.5,3.3,1.2,4.6,2,1.3.8,2.4,1.7,3.2,2.9.8,1.2,1.2,2.6,1.2,4.4s-.3,3.1-.8,4.5c-.6,1.3-1.4,2.5-2.4,3.4-1,1-2.3,1.7-3.8,2.2-1.5.5-3.2.8-5.1.8s-2.9-.1-4.1-.4c-1.2-.3-2.3-.7-3.3-1.1-1-.4-1.8-.9-2.6-1.5-.8-.5-1.4-1-2-1.5-.6-.4-1.1-.8-1.6-1.1-.5-.3-.9-.4-1.2-.4s-.7.1-1.1.3c-.3.2-.6.5-.8.8l-2.3,3.8c2.3,2.4,5,4.3,8.1,5.7,3.2,1.4,6.7,2.1,10.6,2.1s6-.5,8.5-1.5c2.5-1,4.6-2.3,6.3-4,1.7-1.7,3-3.7,3.9-6,.9-2.3,1.3-4.8,1.3-7.4s-.4-4.6-1.2-6.3c-.8-1.7-1.9-3.1-3.3-4.3Z"/>
    <polygon class="cls-1" points="923.1 85.2 942.5 85.2 942.5 138.2 950.6 138.2 950.6 85.2 970 85.2 970 78.4 923.1 78.4 923.1 85.2"/>
    <polygon class="cls-1" points="988.8 85.2 1008.2 85.2 1008.2 138.2 1016.3 138.2 1016.3 85.2 1035.6 85.2 1035.6 78.4 988.8 78.4 988.8 85.2"/>
    <polygon class="cls-1" points="1084.9 105.1 1052.6 105.1 1052.6 78.4 1044.5 78.4 1044.5 138.2 1052.6 138.2 1052.6 111 1084.9 111 1084.9 138.2 1093 138.2 1093 78.4 1084.9 78.4 1084.9 105.1"/>
    <polygon class="cls-1" points="1116.3 111.2 1139.6 111.2 1139.6 104.8 1116.3 104.8 1116.3 85 1145.1 85 1145.1 78.4 1108.2 78.4 1108.2 138.2 1145.1 138.2 1145.1 131.6 1116.3 131.6 1116.3 111.2"/>
    <path class="cls-1" d="M1200,108c-.6-.5-1.3-.9-2-1.1.6-.3,1.1-.6,1.6-1.1.5-.4,1-1,1.6-1.6l22.8-25.8h-6.8c-.9,0-1.6.1-2.3.4-.6.3-1.2.8-1.8,1.5l-19.9,22.5c-.5.6-1.1,1.1-1.8,1.4-.6.3-1.5.4-2.5.4h-3v-26.2h-8.1v59.8h8.1v-27.4h3.7c1.3,0,2.3.1,2.9.4.6.3,1.2.8,1.8,1.5l20.6,23.8c.2.3.4.5.6.7.2.2.5.4.7.5.3.2.6.3,1,.3.4,0,.8.1,1.4.1h7l-23.8-28.3c-.6-.8-1.2-1.4-1.8-1.9Z"/>
    <rect class="cls-1" x="1233.1" y="78.4" width="8.1" height="59.8"/>
    <path class="cls-1" d="M1297.9,120.7c0,.6,0,1.3,0,1.9,0,.7,0,1.4.1,2.1l-34.6-45c-.2-.3-.4-.5-.6-.7-.2-.2-.4-.3-.6-.4-.2,0-.4-.2-.7-.2-.3,0-.6,0-.9,0h-4.2v59.8h7.1v-42.6c0-.6,0-1.2,0-1.9,0-.7,0-1.4-.1-2l34.6,45.1c.4.5.8.9,1.3,1.1.4.2,1,.3,1.6.3h4v-59.8h-7.1v42.4Z"/>
    <path class="cls-1" d="M1350.5,109.4v4.6c0,.4.2.8.5,1.1.3.3.7.5,1.3.5h9.3v13.2c-2.1,1.1-4.2,2-6.3,2.6-2.2.6-4.6.9-7.4.9s-6.7-.5-9.6-1.6c-2.8-1.1-5.3-2.7-7.2-4.7-2-2.1-3.5-4.6-4.6-7.6s-1.6-6.3-1.6-10.1.5-6.9,1.5-9.8c1-2.9,2.5-5.4,4.4-7.4,1.9-2,4.2-3.6,7-4.7,2.7-1.1,5.8-1.6,9.1-1.6s4.3.2,6,.5c1.7.4,3.1.8,4.4,1.3,1.2.5,2.3,1,3.2,1.6s1.6,1,2.3,1.4c.7.4,1.3.5,1.9.4.6-.2,1-.5,1.4-1.1l2.3-3.7c-1.3-1.2-2.7-2.2-4.1-3.2-1.5-.9-3.1-1.7-4.8-2.4-1.7-.7-3.6-1.2-5.6-1.5-2-.3-4.2-.5-6.6-.5-4.7,0-8.9.7-12.7,2.2-3.8,1.5-7,3.6-9.6,6.2-2.6,2.7-4.7,5.9-6.1,9.7-1.4,3.8-2.2,7.9-2.2,12.5s.7,8.6,2.2,12.4c1.5,3.8,3.6,7,6.3,9.7,2.7,2.7,6,4.8,9.9,6.3,3.9,1.5,8.2,2.2,13,2.2s7.8-.5,11.2-1.6c3.4-1.1,6.6-2.7,9.6-4.9v-23h-18.4Z"/>
  </g>
</svg>