<?xml version="1.0" encoding="UTF-8"?>
<svg id="Layer_1" data-name="Layer 1" xmlns="http://www.w3.org/2000/svg" xmlns:sodipodi="http://sodipodi.sourceforge.net/DTD/sodipodi-0.dtd" xmlns:rdf="http://www.w3.org/1999/02/22-rdf-syntax-ns#" xmlns:inkscape="http://www.inkscape.org/namespaces/inkscape" xmlns:dc="http://purl.org/dc/elements/1.1/" xmlns:cc="http://creativecommons.org/ns#" version="1.1" viewBox="0 0 243.4 52.4">
  <defs>
    <style>
      .cls-1 {
        fill: #464646;
        stroke-width: 0px;
      }
    </style>
  </defs>
  <sodipodi:namedview id="cvfa" bordercolor="#666666" borderopacity="1.0" fit-margin-bottom="0" fit-margin-left="0" fit-margin-right="0" fit-margin-top="0" inkscape:current-layer="layer1" inkscape:cx="120.70619" inkscape:cy="25.211606" inkscape:document-rotation="0" inkscape:document-units="mm" inkscape:pageopacity="0.0" inkscape:pageshadow="2" inkscape:window-height="1014" inkscape:window-maximized="1" inkscape:window-width="1920" inkscape:window-x="0" inkscape:window-y="36" inkscape:zoom="3.715634" pagecolor="#ffffff" showgrid="false" units="px"/>
  <g inkscape:groupmode="layer" inkscape:label="Layer 1">
    <g>
      <path class="cls-1" d="M36.5.9v50.4h14.9V12.1L36.5.9Z" inkscape:connector-curvature="0"/>
      <path class="cls-1" d="M30.5,5.4v46h3.1V3.1l-3.1,2.3Z" inkscape:connector-curvature="0"/>
      <path class="cls-1" d="M24.4,51.2h3.1V7.4l-3.1,2.2v41.6Z" inkscape:connector-curvature="0"/>
      <path class="cls-1" d="M18.8,51.2h3.1V11.8l-3.1,2.4v37Z" inkscape:connector-curvature="0"/>
      <path class="cls-1" d="M54.3,23.6v27.9h14.9v-16.7l-14.9-11.2Z" inkscape:connector-curvature="0"/>
      <path class="cls-1" d="M12.7,27.7v23.4h3.1v-25.7l-3.1,2.2Z" inkscape:connector-curvature="0"/>
      <path class="cls-1" d="M6.7,51.2h3.1v-21.2l-3.1,2.2v19Z" inkscape:connector-curvature="0"/>
      <path class="cls-1" d="M1,51.2h3.1v-16.8l-3.1,2.4v14.4Z" inkscape:connector-curvature="0"/>
      <path class="cls-1" d="M107.6,28.9c-4.4,0-7.2-2.5-7.2-7.4v-9.4h3.7v9.4c0,2.7,1.3,4.1,3.7,4.1s3.5-1.5,3.5-4.1v-9.4h3.7v9.3c0,5.2-3,7.5-7.4,7.5h0Z" inkscape:connector-curvature="0"/>
      <path class="cls-1" d="M125.7,28.9c-2.5,0-5-.9-7-2.7l2.1-2.5c1.5,1.2,3.1,1.9,5,1.9s2.4-.6,2.4-1.5h0c0-1-.6-1.5-3.4-2.2-3.3-.9-5.5-1.9-5.5-5.2s2.4-5,5.8-5,4.6.7,6.2,2.1l-1.9,2.8c-1.3-1-2.8-1.6-4.3-1.6s-2.1.6-2.1,1.5.7,1.5,3.5,2.2c3.4.9,5.3,2.1,5.3,5s-2.5,5.2-6.2,5.2h0Z" inkscape:connector-curvature="0"/>
      <path class="cls-1" d="M147.3,28.9v-6.8h-6.8v6.8h-3.7V12.2h3.7v6.5h6.8v-6.5h3.7v16.7h-3.7Z" inkscape:connector-curvature="0"/>
      <path class="cls-1" d="M211.1,28.9l-7.8-10.5v10.5h-3.5V12.2h3.4l7.8,10.6v-10.6h3.5v16.7h-3.4Z" inkscape:connector-curvature="0"/>
      <path class="cls-1" d="M139.3,51.2l-5.2-7.1-1.9,2.1v5h-3.7v-16.7h3.7v7.4l6.8-7.4h4.4l-6.8,7.1,7.1,9.6h-4.4Z" inkscape:connector-curvature="0"/>
      <path class="cls-1" d="M148,51.2v-16.7h12.4v3.2h-8.9v3.4h7.8v3.2h-7.8v3.5h9v3.2h-12.6Z" inkscape:connector-curvature="0"/>
      <path class="cls-1" d="M183.5,51.2h3.5v-16.7h-3.5v16.7Z" inkscape:connector-curvature="0"/>
      <path class="cls-1" d="M192.2,51.2v-16.7h12.4v3.2h-8.7v3.4h7.7v3.2h-7.7v3.5h8.9v3.2h-12.6Z" inkscape:connector-curvature="0"/>
      <path class="cls-1" d="M210.4,51.2v-16.7h3.7v13.4h8.3v3.2h-12Z" inkscape:connector-curvature="0"/>
      <path class="cls-1" d="M233.4,51.2h-6.5v-16.7h6.5c5.3,0,8.9,3.7,8.9,8.3h0c0,4.9-3.5,8.4-8.9,8.4h0ZM238.5,42.9c0-2.9-2.1-5-5-5h-2.8v10h2.8c3,0,5-2.1,5-5h0Z" inkscape:connector-curvature="0"/>
      <path class="cls-1" d="M89.4,25.5c-3.1,0-5.2-2.4-5.2-5.2h0c0-2.9,1.9-5.3,4.9-5.3,1.6-.1,3.1.6,4.1,1.8l2.4-2.8c-1.6-1.5-3.8-2.5-6.5-2.4-5.2,0-8.9,4-8.7,8.7.1,4.9,3.8,8.5,9,8.4,2.7,0,5-1.2,6.5-2.9l-2.5-2.4c-.9,1.2-2.4,1.9-4,2.1h0Z" inkscape:connector-curvature="0"/>
      <path class="cls-1" d="M169.9,12.2h4v16.7h-3.5v-10.9l-4.7,7.1h-.1l-4.7-7.1v10.9h-3.4V12.2h3.8l4.4,6.9,4.3-6.9Z" inkscape:connector-curvature="0"/>
      <path class="cls-1" d="M184.7,12.2l-7.1,16.7h3.8l1.5-3.8h7.1l1.5,3.8h3.8l-7.1-16.7h-3.5ZM184.2,21.8l2.2-5.3,2.2,5.3h-4.4Z" inkscape:connector-curvature="0"/>
      <path class="cls-1" d="M114,34.5l-7.1,16.7h3.7l1.6-3.7h7l1.6,3.7h3.7l-7.1-16.7h-3.4ZM113.4,44.3l2.2-5.5,2.2,5.5h-4.4Z" inkscape:connector-curvature="0"/>
      <path class="cls-1" d="M169.2,37.9v3.5h7.8v3.4h-7.8v6.3h-3.7v-16.7h12.7v3.4h-9Z" inkscape:connector-curvature="0"/>
      <path class="cls-1" d="M102.7,34.5l-3.8,11.6-3.8-11.6h-3.6l-3.8,11.6-3.8-11.6h-4l6.1,16.7h3.7l3.7-11.4,3.8,11.4h3.5l6.1-16.7h-4Z" inkscape:connector-curvature="0"/>
      <path class="cls-1" d="M238,24.7l1.9-2.2-2.2-2.4-1.8,1.9-2.1-2.5c1.3-.7,2.2-2.2,2.2-3.7-.1-2.4-1.9-4-4.3-4s-2.2.4-3,1.2c-.7.7-1.2,1.8-1.2,2.9.1,1.3.9,2.4,1.5,3.1-1.9.7-3.4,2.8-3.3,4.9.1,2.8,2.5,5.2,5.5,5.2s3.4-.9,4.6-2.2l1.5,1.9h4.3l-3.7-4.1ZM234,24.6c-.9,1-1.8,1.5-2.7,1.5s-2.2-.9-2.2-2.2c-.1-.7.4-1.8,2.1-2.5l2.8,3.2ZM231.9,17.6c-.4-.4-1-1-1.2-1.6,0-.6.3-1.2,1.2-1.3.7,0,1.2.6,1.2,1.3s-.7,1.3-1.2,1.6Z" inkscape:connector-curvature="0"/>
    </g>
  </g>
</svg>